# xmcd
# Copyright (C) 1995-1998 Ti Kan
#
# Track frame offsets:
#       150
#       15195
#       32645
#       48141
#       62860
#       77508
#       85800
#       103480
#       120137
#       135952
#       153592
#       170698
#
# Disc length: 2547 seconds
#
# Revision: 0
# Processed by: cddbd v1.5PL3 Copyright (c) Steve Scherf et al.
# Submitted via: CD-Transfer v1.0
#
DISCID=8609f10c
DTITLE=Little Venus - Florence Or Berne
DYEAR=2004
DGENRE=
TTITLE0=Angel Dust
TTITLE1=Stranger
TTITLE2=Heritage
TTITLE3=Florence Or Berne
TTITLE4=Preacher
TTITLE5=Empty
TTITLE6=Ten Camels
TTITLE7=Warm Hearts - Theory
TTITLE8=Rain In The Desert
TTITLE9=King
TTITLE10=Burning Paint
TTITLE11=Magal Hidhid
EXTD=
EXTT0=
EXTT1=
EXTT2=
EXTT3=
EXTT4=
EXTT5=
EXTT6=
EXTT7=
EXTT8=
EXTT9=
EXTT10=
EXTT11=
PLAYORDER=
